<?xml version="1.0" standalone="no"?>
<!DOCTYPE svg PUBLIC "-//W3C//DTD SVG 20010904//EN"
 "http://www.w3.org/TR/2001/REC-SVG-20010904/DTD/svg10.dtd">
<svg version="1.0" xmlns="http://www.w3.org/2000/svg"
 width="500.000000pt" height="500.000000pt" viewBox="0 0 500.000000 500.000000"
 preserveAspectRatio="xMidYMid meet">

<g transform="translate(0.000000,500.000000) scale(0.100000,-0.100000)"
fill="#000000" stroke="none">
<path d="M2210 4070 c-22 -12 -56 -19 -90 -20 -59 0 -113 -21 -182 -68 -67
-45 -107 -64 -157 -71 -42 -5 -48 -10 -66 -49 -12 -23 -44 -66 -72 -95 -74
-76 -97 -126 -97 -217 -1 -53 6 -96 22 -146 l24 -72 -30 -93 c-23 -70 -35 -95
-49 -97 -119 -17 -193 -47 -193 -77 0 -8 9 -32 20 -52 11 -21 20 -52 20 -69 0
-30 9 -66 32 -127 12 -31 54 -57 93 -57 14 0 25 -3 25 -7 3 -411 66 -731 162
-820 26 -25 125 -73 149 -73 30 0 37 -23 44 -140 l7 -115 -43 -65 c-24 -36
-50 -70 -59 -77 -21 -17 -325 -146 -598 -254 -342 -136 -346 -137 -384 -169
-43 -36 -94 -132 -104 -196 l-7 -46 69 -70 c148 -150 370 -315 567 -422 138
-75 443 -203 456 -190 3 2 0 37 -7 77 -17 106 -26 328 -17 450 l7 107 66 0
c107 0 178 34 256 121 44 49 45 50 52 25 6 -27 -9 -172 -27 -251 -6 -27 -15
-66 -19 -85 -8 -35 -33 -169 -50 -270 -5 -30 -12 -97 -16 -147 -6 -80 -5 -93
8 -93 17 0 24 26 33 130 9 103 40 269 91 500 8 36 15 112 15 168 l1 104 35 15
c21 8 47 12 62 8 14 -4 72 -53 129 -110 151 -153 181 -163 259 -88 28 27 69
66 93 88 l42 40 -80 -160 c-185 -371 -312 -645 -327 -707 -7 -26 -6 -26 57
-30 117 -7 371 12 513 38 418 76 841 275 1163 547 102 86 332 324 332 344 0
56 -200 158 -826 422 -114 48 -177 81 -194 100 -278 312 -305 337 -376 348
-21 3 -52 16 -69 28 -16 12 -37 25 -46 28 -19 6 -29 72 -29 189 0 64 3 79 18
87 10 5 37 41 60 80 23 39 90 136 150 215 140 190 208 299 249 401 52 130 73
225 73 334 0 197 -64 331 -216 452 -35 28 -64 57 -64 65 0 28 -43 106 -86 153
-87 96 -194 143 -413 181 -68 11 -155 32 -194 45 -91 32 -214 34 -267 5z m215
-442 c22 -6 53 -14 69 -19 16 -5 55 -9 87 -9 33 0 59 -4 59 -9 0 -5 -16 -51
-36 -102 -50 -128 -51 -192 -5 -274 51 -91 69 -129 76 -158 8 -31 15 -32 -165
32 -237 85 -445 94 -601 26 -70 -31 -116 -31 -177 -3 -26 12 -71 23 -100 26
-33 3 -51 9 -49 16 5 14 65 20 80 8 24 -19 64 -22 77 -7 26 32 -19 72 -93 83
l-45 7 15 45 c22 67 77 182 99 208 17 20 23 21 54 12 19 -5 72 -10 117 -10 95
0 151 17 282 88 114 62 153 68 256 40z m-109 -533 c27 -17 27 -18 21 -106 -7
-98 -27 -158 -58 -177 -30 -19 -166 -32 -234 -23 -45 6 -64 14 -81 35 -28 31
-64 143 -64 196 0 45 20 65 80 79 79 19 93 20 202 16 82 -2 114 -7 134 -20z
m-773 -32 c4 -20 4 -39 2 -41 -7 -7 -135 41 -135 50 0 14 41 27 86 27 40 1 42
0 47 -36z m130 26 c53 -14 71 -46 62 -111 -11 -75 -58 -174 -87 -182 -40 -10
-88 -7 -88 7 0 6 7 53 16 102 10 56 13 110 9 143 -6 52 -6 52 22 52 15 0 45
-5 66 -11z m838 -85 c46 -14 102 -31 124 -38 l40 -13 5 -73 c5 -72 6 -73 40
-91 62 -31 78 -32 97 -8 85 105 167 162 237 163 136 3 176 -147 87 -322 -47
-92 -205 -212 -279 -212 -36 0 -81 28 -88 55 -7 28 -44 35 -44 9 0 -49 69
-104 131 -104 34 0 32 23 9 -180 -14 -119 -12 -219 6 -335 30 -188 32 -171
-27 -260 -60 -93 -247 -283 -360 -368 -85 -62 -220 -147 -268 -166 -17 -8 -41
-11 -54 -8 -57 15 -197 129 -244 201 l-29 43 9 104 c8 105 3 402 -8 432 -5 12
3 17 42 22 26 3 71 11 98 16 142 29 372 149 513 268 63 53 80 79 58 87 -10 4
-37 -13 -73 -46 -104 -92 -293 -201 -430 -245 -234 -77 -389 -45 -450 93 -61
139 -105 397 -101 593 l3 124 45 6 c52 7 58 5 40 -16 -7 -9 -14 -36 -14 -61
-1 -41 3 -50 32 -74 35 -29 138 -58 167 -47 27 11 18 37 -15 37 -46 0 -138 38
-145 61 -8 24 -2 44 50 154 24 50 54 116 68 147 32 71 57 71 83 -1 49 -141 58
-155 104 -179 41 -21 55 -23 165 -20 178 5 214 33 235 178 17 118 10 114 141
74z m-1039 -36 c75 -24 73 -21 57 -115 -12 -68 -22 -75 -74 -51 -18 8 -29 25
-40 62 -21 68 -29 126 -19 126 4 0 38 -10 76 -22z m1485 -1160 c11 -13 39 -56
63 -96 39 -66 42 -77 37 -120 -7 -59 -55 -202 -113 -339 -83 -197 -98 -219
-234 -357 -116 -118 -129 -128 -154 -122 -16 4 -73 53 -138 117 -74 74 -119
112 -139 116 -16 3 -31 9 -34 12 -2 4 24 22 58 41 241 130 525 394 613 570 26
52 27 77 9 168 -8 38 3 41 32 10z m-1102 -433 c-14 -28 -15 -40 -5 -69 25 -78
125 -186 232 -252 l57 -35 -58 -77 c-85 -112 -152 -152 -260 -154 -34 0 -63 1
-65 3 -5 6 20 156 44 271 19 88 20 106 10 194 -16 129 -3 204 44 263 19 25 20
-102 1 -144z"/>
<path d="M2080 3276 c-76 -18 -130 -42 -130 -60 0 -51 30 -57 124 -26 90 30
188 25 289 -15 25 -10 22 17 -5 42 -34 31 -66 45 -133 59 -71 16 -74 16 -145
0z"/>
<path d="M2115 3050 c-29 -32 -26 -117 4 -141 29 -24 33 -24 62 0 19 16 24 29
24 69 0 79 -49 118 -90 72z"/>
<path d="M1630 3038 c-22 -24 -26 -73 -9 -112 15 -33 37 -40 65 -21 20 13 24
24 24 69 0 39 -5 57 -18 69 -25 22 -37 21 -62 -5z"/>
<path d="M3026 2867 c-52 -13 -117 -80 -156 -161 -34 -73 -40 -129 -13 -124
10 2 19 12 21 23 7 39 34 104 47 108 7 3 23 0 36 -7 18 -9 24 -20 24 -46 0
-28 4 -35 20 -35 23 0 30 23 21 70 -5 25 -15 37 -42 50 l-36 17 24 25 c12 14
38 32 57 40 31 13 36 13 62 -6 35 -26 49 -27 49 -2 0 38 -57 62 -114 48z"/>
<path d="M2010 2414 c-79 -33 -179 -48 -272 -39 -65 5 -78 4 -78 -8 0 -19 22
-27 95 -34 112 -10 335 51 335 91 0 20 -13 19 -80 -10z"/>
</g>
</svg>
